<?xml version="1.0" standalone="no"?>
<!DOCTYPE svg PUBLIC "-//W3C//DTD SVG 20010904//EN"
 "http://www.w3.org/TR/2001/REC-SVG-20010904/DTD/svg10.dtd">
<svg version="1.0" xmlns="http://www.w3.org/2000/svg"
 width="79.000000pt" height="79.000000pt" viewBox="0 0 79.000000 79.000000"
 preserveAspectRatio="xMidYMid meet">
<metadata>
Created by potrace 1.14, written by Peter Selinger 2001-2017
</metadata>
<g transform="translate(0.000000,79.000000) scale(0.100000,-0.100000)"
fill="#000000" stroke="none">
<path d="M174 778 c-12 -19 -10 -119 2 -136 13 -18 147 -24 170 -7 16 11 24
121 10 143 -10 16 -172 16 -182 0z"/>
<path d="M417 783 c-4 -3 -7 -44 -7 -90 l0 -83 -199 0 c-228 0 -211 8 -211
-100 0 -108 -17 -100 211 -100 182 0 221 -5 189 -25 -13 -8 -13 -178 0 -191 5
-5 10 -47 12 -94 l3 -85 87 -3 c103 -3 106 -1 103 98 0 36 2 70 6 75 4 6 38 9
76 9 37 -1 74 3 81 9 13 10 17 141 6 171 -5 13 -22 16 -85 16 -46 0 -79 4 -79
10 0 6 33 10 79 10 91 0 88 -3 91 97 2 95 -6 103 -98 103 l-78 0 1 73 c2 112
6 107 -94 107 -48 0 -91 -3 -94 -7z"/>
<path d="M7 384 c-13 -13 -8 -172 5 -180 21 -13 117 -12 129 2 5 7 9 49 7 96
l-3 83 -65 3 c-36 2 -69 0 -73 -4z"/>
<path d="M172 373 c-10 -22 -9 -334 2 -351 9 -16 172 -17 182 -1 9 14 9 343 0
358 -4 7 -40 11 -91 11 -70 0 -86 -3 -93 -17z"/>
</g>
</svg>
